<svg width="27" height="16" viewBox="0 0 27 16" xmlns="http://www.w3.org/2000/svg">
    <title>F11B7B0C-5A49-41F3-BD98-3ECFC50400A1</title>
    <g fill="none" fill-rule="evenodd">
        <path d="M26.926 7.932c0-4.378-3.553-7.927-7.936-7.927a7.862 7.862 0 0 0-4.999 1.78 8.538 8.538 0 0 1 2.266 3.687h-.66a7.902 7.902 0 0 0-2.082-3.277 7.926 7.926 0 0 0-2.069 3.273h-.66a8.552 8.552 0 0 1 2.242-3.678C11.665.687 9.943.005 8.052.005 3.669.005.117 3.555.117 7.932c0 4.378 3.552 7.927 7.935 7.927 1.89 0 3.613-.682 4.976-1.785a8.552 8.552 0 0 1-2.242-3.678h.66a7.926 7.926 0 0 0 2.069 3.274 7.902 7.902 0 0 0 2.082-3.277h.66a8.54 8.54 0 0 1-2.266 3.687 7.863 7.863 0 0 0 5 1.779c4.382 0 7.935-3.549 7.935-7.927"
              fill="#A3A3A3"/>
        <path d="M21.093 9.79l.548-2.934h.693l.072.29c.125-.145.362-.29.766-.29l-.217.764c-.197 0-.57-.051-.807.826L21.9 9.79h-.807M10.476 6.11h.798l-.163.778h.43l-.144.634h-.41l-.225 1.186c-.04.225-.02.43.44.358l-.05.593c-.175.112-.41.143-.594.143s-.789-.113-.635-.91l.553-2.781m3.46 2.372c.092-.47.307-1.636-1.096-1.636-1.29 0-1.453 1.278-1.484 1.462-.03.184-.051 1.483 1.33 1.483.339.01.83-.03 1.025-.133l.122-.604c-.122.031-.583.072-.9.072-.318 0-.83.02-.738-.644h1.74m-4.217-.941l.185-.593c-.38-.143-.676-.112-.789-.112-.112 0-1.07-.012-1.218.695-.112.542.087.766.277.848.307.134.481.256.645.338.202.101.165.44-.103.44-.123 0-.655.061-1.054-.072l-.112.603c.368.103.665.103.941.103.195 0 1.147.05 1.28-.829.065-.429-.123-.623-.277-.715a4.5 4.5 0 0 0-.573-.317c-.164-.072-.287-.348.01-.43.184-.02.563-.02.788.041M4.54 9.792l.664-3.538h-1.31L2.922 8.4l-.154-2.147h-1.28L.804 9.792h.798l.492-2.557.215 2.557h.757l1.116-2.495-.471 2.495h.83m.879-2.853l-.124.634c.195-.02.717-.102.993-.092.277.01.584-.03.492.409-.205.02-1.638-.205-1.863 1.022-.092.604.43.91.84.89.409-.02.521-.072.664-.174l.103.164h.747l.317-1.595c.082-.4.215-1.36-1.126-1.36-.245.01-.521 0-1.044.102m12.938.133c-.204-.123-.348-.143-.614-.143s-.86.254-.972.971c-.133.849.45 1.268 1.27.992l.234.715c-.266.123-.532.185-.972.185-.829 0-1.73-.737-1.32-2.23.302-1.1 1.249-1.502 1.801-1.482.655.024.89.245 1.096.47l-.523.522m6.807.122c-.153-.112-.245-.347-.624-.347-.44 0-1.126-.082-1.515 1.247-.26.889.266 1.698.84 1.698.266-.01.532-.123.695-.235l.103.235h.86l.696-3.722h-.84l-.215 1.124m-6.234-.255l-.122.634c.194-.02.716-.102.993-.092.276.01.583-.03.49.409-.204.02-1.637-.205-1.862 1.022-.092.604.43.91.84.89.409-.02.521-.072.665-.174l.102.164h.747l.318-1.595c.082-.4.215-1.36-1.126-1.36-.246.01-.522 0-1.044.102"
              fill="#FFFFFE"/>
        <path d="M12.247 7.951h.993c.05-.286-.041-.532-.359-.532-.317 0-.542.164-.634.532m-5.599.532c-.133-.02-.43-.103-.686.071-.256.174-.328.48-.062.583.257.099.635-.07.686-.337l.062-.317m18.23-.093c.082-.265.037-.597-.051-.715-.246-.327-.81-.068-.983.573-.113.419.133.736.41.736.296 0 .48-.235.624-.593m-4.718.092c-.134-.02-.43-.103-.687.071-.256.174-.327.48-.061.583.256.099.634-.07.686-.337l.061-.317"
              fill="#A3A3A3"/>
        <path d="M13.959 9.792l.542-2.904h.686l.072.286c.122-.143.358-.286.757-.286l-.205.767c-.194 0-.573-.062-.808.807l-.246 1.33h-.798"
              fill="#FFFFFE"/>
    </g>
</svg>