<svg width="18" height="18" viewBox="0 0 18 18" version="1.1" xmlns="http://www.w3.org/2000/svg">
    <g id="Page-1" stroke="none" stroke-width="1" fill="none" fill-rule="evenodd">
        <g id="Избранное" transform="translate(-422.000000, -214.000000)" fill="#9B9B9B"
           stroke="#9B9B9B" stroke-width="0.7px">
            <g id="cell" transform="translate(35.000000, 85.000000)" stroke="#9B9B9B" fill="#9B9B9B"
               stroke-width="0.7px">
                <g id="Group-Copy" stroke="#9B9B9B" fill="#9B9B9B" stroke-width="0.7px">
                    <g id="Group-4-Copy-3" transform="translate(374.000000, 125.000000)" stroke="#9B9B9B" fill="#9B9B9B"
                       stroke-width="0.7px">
                        <g id="Group-2" transform="translate(14.000000, 5.000000)" stroke="#9B9B9B" fill="#9B9B9B"
                           stroke-width="0.7px">
                            <g id="Group" stroke="#9B9B9B" fill="#9B9B9B" stroke-width="0.7px">
                                <path d="M8,8.76190476 C11.9973333,8.76190476 15.2380952,12.0026667 15.2380952,16 L16,16 C16,11.5817143 12.4182857,8 8,8 C3.58171429,8 0,11.5817143 0,16 L0.761904762,16 C0.761904762,12.0026667 4.00247619,8.76190476 8,8.76190476 Z"
                                      id="Shape" stroke="#9B9B9B" fill="#9B9B9B" stroke-width="0.7px"/>
                                <path d="M8,0 C5.58038095,0 3.61904762,1.96133333 3.61904762,4.38095238 C3.61904762,6.80057143 5.58038095,8.76190476 8,8.76190476 C10.419619,8.76190476 12.3809524,6.80057143 12.3809524,4.38095238 C12.3809524,1.96133333 10.419619,0 8,0 Z M8,8 C6.00114286,8 4.38095238,6.37980952 4.38095238,4.38095238 C4.38095238,2.38209524 6.00114286,0.761904762 8,0.761904762 C9.99885714,0.761904762 11.6190476,2.38209524 11.6190476,4.38095238 C11.6190476,6.37980952 9.99885714,8 8,8 Z"
                                      id="Shape" stroke="#9B9B9B" fill="#9B9B9B" stroke-width="0.7px"/>
                            </g>
                        </g>
                    </g>
                </g>
            </g>
        </g>
    </g>
</svg>