<svg width="36" height="12" viewBox="0 0 36 12" xmlns="http://www.w3.org/2000/svg">
    <title>C18EA18F-C11C-4E5D-8545-4CC6D4D25A36</title>
    <path d="M10.81 11.278L14.13.332h2.961l-3.32 10.946h-2.96M9.486.336l-2.664 4.64C6.144 6.19 5.747 6.803 5.556 7.571h-.04c.047-.974-.089-2.169-.101-2.844L5.12.336H.135L.083.63c1.281 0 2.04.643 2.25 1.96l.972 8.688h3.068L12.577.336H9.486m22.693 4.485c-.033-.808-.06-1.906-.006-2.57h-.043c-.18.543-.955 2.174-1.295 2.977l-1.102 2.399h2.596l-.15-2.806zm.34 6.457l-.082-1.628-3.698-.003-.757 1.63h-3.216L30.597.355h3.947l.987 10.924H32.52zm-12.319.31c-2.09 0-3.478-.663-4.469-1.254l1.411-2.155c.89.498 1.588 1.072 3.195 1.072.516 0 1.014-.135 1.297-.624.412-.712-.095-1.095-1.252-1.75l-.572-.371c-1.715-1.172-2.456-2.286-1.649-4.229.516-1.242 1.88-2.185 4.127-2.185 1.55 0 3.004.67 3.85 1.326l-1.62 1.902c-.827-.668-1.512-1.006-2.296-1.006-.625 0-1.1.24-1.264.566-.308.611.1 1.028 1.001 1.587l.68.433c2.082 1.313 2.578 2.69 2.056 3.977-.898 2.217-2.655 2.711-4.493 2.711"
          fill="#979797" fill-rule="evenodd"/>
</svg>